<svg width="24" height="24" viewBox="0 0 24 24" fill="none" xmlns="http://www.w3.org/2000/svg">
<path fill-rule="evenodd" clip-rule="evenodd" d="M18.5402 4.33748L20.0002 4.48748C21.7286 4.68285 23.0266 6.1582 23.0002 7.89748V16.0975C23.0266 17.8368 21.7286 19.3121 20.0002 19.5075L18.6002 19.6575C14.2317 20.1075 9.8286 20.1075 5.46015 19.6575L4.00015 19.5075C2.27167 19.3121 0.973708 17.8368 1.00015 16.0975V7.89748C0.973708 6.1582 2.27167 4.68285 4.00015 4.48748L5.40015 4.33748C9.7686 3.88751 14.1717 3.88751 18.5402 4.33748ZM11.1102 15.2177L15.0002 12.6177H15.0602C15.2698 12.4811 15.3962 12.2478 15.3962 11.9977C15.3962 11.7475 15.2698 11.5142 15.0602 11.3777L11.1702 8.77766C10.9405 8.62242 10.6439 8.60653 10.399 8.73633C10.154 8.86613 10.0007 9.12045 10.0002 9.39766V14.5977C10.0131 14.8557 10.1579 15.089 10.3835 15.215C10.6091 15.341 10.8836 15.342 11.1102 15.2177Z" fill="white"/>
</svg>
