<svg width="64" height="64" viewBox="0 0 64 64" fill="none" xmlns="http://www.w3.org/2000/svg">
<path d="M54.8579 25.595C50.4466 20.8067 47.9985 14.534 48 8.02343C48.0018 7.75918 47.9515 7.49718 47.8519 7.25242C47.7523 7.00765 47.6054 6.78493 47.4196 6.59699C47.2339 6.40905 47.0129 6.25959 46.7693 6.15715C46.5257 6.05471 46.2643 6.00131 46 6H18C17.7358 6.00131 17.4744 6.05471 17.2308 6.15715C16.9872 6.25958 16.7662 6.40905 16.5805 6.59698C16.3947 6.78492 16.2478 7.00765 16.1482 7.25241C16.0486 7.49718 15.9983 7.75918 16 8.02342C16.0016 14.534 13.5535 20.8069 9.14214 25.5952C8.84206 25.9215 8.65889 26.3383 8.62142 26.78C8.58394 27.2217 8.69428 27.6633 8.9351 28.0355L28.1605 57.7476C28.2777 57.9288 28.4504 58.0672 28.6528 58.1421C28.8551 58.217 29.0763 58.2245 29.2833 58.1634C29.4902 58.1023 29.6719 57.9758 29.801 57.803C29.9302 57.6301 30 57.4201 30 57.2043V37.7468C28.1147 37.26 26.4717 36.1024 25.3788 34.4908C24.286 32.8793 23.8184 30.9245 24.0638 28.9928C24.3091 27.0612 25.2506 25.2854 26.7116 23.9982C28.1726 22.711 30.0529 22.0009 32 22.0009C33.9472 22.0009 35.8275 22.711 37.2885 23.9982C38.7495 25.2854 39.6909 27.0612 39.9363 28.9928C40.1816 30.9245 39.7141 32.8793 38.6212 34.4908C37.5284 36.1024 35.8854 37.26 34 37.7468V57.2043C34 57.4201 34.0698 57.6301 34.199 57.803C34.3282 57.9758 34.5099 58.1023 34.7168 58.1634C34.9238 58.2245 35.145 58.217 35.3473 58.1421C35.5497 58.0671 35.7224 57.9287 35.8396 57.7476L55.065 28.0354C55.3058 27.6632 55.4161 27.2215 55.3787 26.7798C55.3412 26.3381 55.158 25.9213 54.8579 25.595Z" fill="white"/>
<path d="M32 34C34.2091 34 36 32.2091 36 30C36 27.7909 34.2091 26 32 26C29.7909 26 28 27.7909 28 30C28 32.2091 29.7909 34 32 34Z" fill="white"/>
</svg>
