<svg width="64" height="64" viewBox="0 0 64 64" fill="none" xmlns="http://www.w3.org/2000/svg">
<path d="M52 10.0001H12C8.68629 10.0001 6 12.6864 6 16.0001V44.0001C6 47.3138 8.68629 50.0001 12 50.0001H52C55.3137 50.0001 58 47.3138 58 44.0001V16.0001C58 12.6864 55.3137 10.0001 52 10.0001Z" fill="white"/>
<path d="M40 54.0001H24C23.4696 54.0001 22.9609 54.2108 22.5858 54.5858C22.2107 54.9609 22 55.4696 22 56.0001C22 56.5305 22.2107 57.0392 22.5858 57.4143C22.9609 57.7893 23.4696 58.0001 24 58.0001H40C40.5304 58.0001 41.0391 57.7893 41.4142 57.4143C41.7893 57.0392 42 56.5305 42 56.0001C42 55.4696 41.7893 54.9609 41.4142 54.5858C41.0391 54.2108 40.5304 54.0001 40 54.0001Z" fill="white"/>
</svg>
