<svg width="64" height="64" viewBox="0 0 64 64" fill="none" xmlns="http://www.w3.org/2000/svg">
<path d="M57.0419 38.239L52.2536 25.0834C51.8898 24.0872 51.1458 23.276 50.1846 22.8277C49.2234 22.3795 48.1237 22.3309 47.1267 22.6926L32.1411 28.1469L34.9103 12.4418C35.0945 11.3971 34.8562 10.3219 34.2477 9.45285C33.6392 8.5838 32.7104 7.99206 31.6657 7.80781L17.8786 5.37714C17.3612 5.28585 16.831 5.29737 16.3182 5.41101C15.8053 5.52466 15.3199 5.73822 14.8895 6.03949C14.4592 6.34077 14.0925 6.72386 13.8102 7.16689C13.528 7.60992 13.3357 8.1042 13.2445 8.62152L7.19777 42.9147C6.94332 44.3885 6.9834 45.8981 7.31568 47.3564C7.64796 48.8146 8.26585 50.1925 9.13368 51.4106C10.1332 52.8287 11.4589 53.9858 12.9992 54.7844C14.5394 55.583 16.2491 55.9996 17.984 55.9992H17.9849C17.9899 55.9992 17.9948 55.9999 17.9998 55.9999H52.9998C54.0603 55.9987 55.077 55.5769 55.8269 54.827C56.5767 54.0771 56.9986 53.0604 56.9998 51.9999V41.0693C57.3603 40.1629 57.3753 39.1557 57.0419 38.239ZM17.9998 47.9999C17.4064 47.9999 16.8264 47.824 16.3331 47.4944C15.8397 47.1647 15.4552 46.6962 15.2281 46.148C15.0011 45.5998 14.9417 44.9966 15.0574 44.4147C15.1732 43.8327 15.4589 43.2982 15.8784 42.8786C16.298 42.4591 16.8326 42.1733 17.4145 42.0576C17.9964 41.9418 18.5996 42.0012 19.1478 42.2283C19.696 42.4554 20.1645 42.8399 20.4942 43.3332C20.8238 43.8266 20.9998 44.4066 20.9998 44.9999C20.9989 45.7953 20.6825 46.5579 20.1201 47.1203C19.5577 47.6827 18.7951 47.9991 17.9998 47.9999ZM52.9998 51.9999H30.9295L52.9998 43.967V51.9999ZM28.3629 48.6773C28.5689 48.1025 28.726 47.5113 28.8327 46.9101L31.339 32.6956L48.4948 26.4514L53.2831 39.6071L28.3629 48.6773Z" fill="white"/>
</svg>
